<svg width="67" height="50" viewBox="0 0 67 50" fill="none" xmlns="http://www.w3.org/2000/svg">
<path d="M8.42684 6.25C7.28944 6.25 6.35883 7.1875 6.35883 8.33333V11.2109L28.6546 29.6484C31.3301 31.862 35.1689 31.862 37.8444 29.6484L60.1272 11.2109V8.33333C60.1272 7.1875 59.1966 6.25 58.0592 6.25H8.42684ZM6.35883 19.2969V41.6667C6.35883 42.8125 7.28944 43.75 8.42684 43.75H58.0592C59.1966 43.75 60.1272 42.8125 60.1272 41.6667V19.2969L41.7736 34.4792C36.8103 38.5807 29.6628 38.5807 24.7125 34.4792L6.35883 19.2969ZM0.154785 8.33333C0.154785 3.73698 3.86429 0 8.42684 0H58.0592C62.6218 0 66.3313 3.73698 66.3313 8.33333V41.6667C66.3313 46.263 62.6218 50 58.0592 50H8.42684C3.86429 50 0.154785 46.263 0.154785 41.6667V8.33333Z" fill="#12238C" style="fill:#12238C;fill:color(display-p3 0.0706 0.1373 0.5490);fill-opacity:1;"/>
</svg>
