<svg width="51" height="50" viewBox="0 0 51 50" fill="none" xmlns="http://www.w3.org/2000/svg">
<path d="M16.2576 2.40444C15.5057 0.588114 13.5233 -0.378641 11.6289 0.138915L3.03552 2.48256C1.33637 2.95129 0.154785 4.49419 0.154785 6.25193C0.154785 30.411 19.7438 50 43.9029 50C45.6606 50 47.2035 48.8184 47.6722 47.1193L50.0159 38.5259C50.5334 36.6314 49.5667 34.6491 47.7503 33.8972L38.3758 29.9911C36.784 29.3271 34.9384 29.786 33.8545 31.1239L29.9093 35.9381C23.0346 32.6863 17.4685 27.1201 14.2167 20.2455L19.0309 16.3101C20.3687 15.2164 20.8277 13.3805 20.1637 11.7888L16.2576 2.41421V2.40444Z" fill="#12238C" style="fill:#12238C;fill:color(display-p3 0.0706 0.1373 0.5490);fill-opacity:1;"/>
</svg>
