<svg width="72" height="50" viewBox="0 0 72 50" fill="none" xmlns="http://www.w3.org/2000/svg">
<path d="M69.6695 7.82552C68.8488 4.73958 66.4388 2.31771 63.3774 1.4974C57.8278 0 35.5773 0 35.5773 0C35.5773 0 13.3268 0 7.77724 1.4974C4.71585 2.31771 2.30582 4.73958 1.4851 7.82552C0 13.4115 0 25.0521 0 25.0521C0 25.0521 0 36.6927 1.4851 42.2786C2.30582 45.3646 4.71585 47.6823 7.77724 48.5026C13.3268 50 35.5773 50 35.5773 50C35.5773 50 57.8278 50 63.3774 48.5026C66.4388 47.6823 68.8488 45.3516 69.6695 42.2786C71.1546 36.6927 71.1546 25.0521 71.1546 25.0521C71.1546 25.0521 71.1546 13.4115 69.6695 7.82552ZM28.3081 35.625V14.4792L46.8979 25.0521L28.3081 35.625Z" fill="#12238C" style="fill:#12238C;fill:color(display-p3 0.0706 0.1373 0.5490);fill-opacity:1;"/>
</svg>
